HIERARCHY
ROOT root
{
	OFFSET	0	13.1	24.9
	CHANNELS 6  Xposition Yposition Zposition Xrotation Yrotation Zrotation
	JOINT spine_1
	{
		OFFSET	0	9.99999	0
		CHANNELS 3  Xrotation Yrotation Zrotation
		JOINT spine_2
		{
			OFFSET	0	112	-10
			CHANNELS 3  Xrotation Yrotation Zrotation
			JOINT spine_3
			{
				OFFSET	0	206.5	19.3
				CHANNELS 3  Xrotation Yrotation Zrotation
				JOINT spine_4
				{
					OFFSET	0	110.4	14.6
					CHANNELS 3  Xrotation Yrotation Zrotation
					JOINT neck_1
					{
						OFFSET	0	71.8	-50.3
						CHANNELS 3  Xrotation Yrotation Zrotation
						JOINT neck_2
						{
							OFFSET	0	86.2	-25.8
							CHANNELS 3  Xrotation Yrotation Zrotation
							JOINT head_ee
							{
								OFFSET	0	179.8	-8.7
								CHANNELS 3  Xrotation Yrotation Zrotation
								End Site
								{
									OFFSET	1	0	0
								}
							}
						}
					}
					JOINT left_clavicle
					{
						OFFSET	-43.2	22.4	-70.8
						CHANNELS 3  Xrotation Yrotation Zrotation
						JOINT left_shoulder
						{
							OFFSET	-93.9	-5.79999	48.7
							CHANNELS 3  Xrotation Yrotation Zrotation
							JOINT left_elbow
							{
								OFFSET	-291.4	-30.8	15.2
								CHANNELS 3  Xrotation Yrotation Zrotation
								JOINT left_lowarm_twist
								{
									OFFSET	-110.7	-3.89999	13.6
									CHANNELS 3  Xrotation Yrotation Zrotation
									JOINT left_hand
									{
										OFFSET	-110.7	-3.89999	13.6
										CHANNELS 3  Xrotation Yrotation Zrotation
										JOINT left_ee
										{
											OFFSET	-80.8	-5.10001	12.1
											CHANNELS 3  Xrotation Yrotation Zrotation
											End Site
											{
												OFFSET	1	0	0
											}
										}
									}
								}
							}
						}
					}
					JOINT right_clavicle
					{
						OFFSET	43.2	22.4	-70.8
						CHANNELS 3  Xrotation Yrotation Zrotation
						JOINT right_shoulder
						{
							OFFSET	93.9	-5.79999	48.7
							CHANNELS 3  Xrotation Yrotation Zrotation
							JOINT right_elbow
							{
								OFFSET	291.4	-30.8	15.2
								CHANNELS 3  Xrotation Yrotation Zrotation
								JOINT right_lowarm_twist
								{
									OFFSET	110.7	-3.89999	13.6
									CHANNELS 3  Xrotation Yrotation Zrotation
									JOINT right_hand
									{
										OFFSET	110.7	-3.89999	13.6
										CHANNELS 3  Xrotation Yrotation Zrotation
										JOINT right_ee
										{
											OFFSET	80.8	-5.10001	12.1
											CHANNELS 3  Xrotation Yrotation Zrotation
											End Site
											{
												OFFSET	1	0	0
											}
										}
									}
								}
							}
						}
					}
				}
			}
		}
	}
	JOINT left_hip
	{
		OFFSET	-82.8	-127.5	0.300001
		CHANNELS 3  Xrotation Yrotation Zrotation
		JOINT left_knee
		{
			OFFSET	-28.2	-396.7	2.2
			CHANNELS 3  Xrotation Yrotation Zrotation
			JOINT left_ankle
			{
				OFFSET	-11.7	-411.3	35.4
				CHANNELS 3  Xrotation Yrotation Zrotation
				JOINT left_toes
				{
					OFFSET	0	-60	-88.6
					CHANNELS 3  Xrotation Yrotation Zrotation
					JOINT left_foot_ee
					{
						OFFSET	-22.5	-16.5	-42.2
						CHANNELS 3  Xrotation Yrotation Zrotation
						End Site
						{
							OFFSET	1	0	0
						}
					}
				}
			}
		}
	}
	JOINT right_hip
	{
		OFFSET	82.8	-127.5	0.300001
		CHANNELS 3  Xrotation Yrotation Zrotation
		JOINT right_knee
		{
			OFFSET	28.2	-396.7	2.2
			CHANNELS 3  Xrotation Yrotation Zrotation
			JOINT right_ankle
			{
				OFFSET	11.7	-411.3	35.4
				CHANNELS 3  Xrotation Yrotation Zrotation
				JOINT right_toes
				{
					OFFSET	0	-60	-88.6
					CHANNELS 3  Xrotation Yrotation Zrotation
					JOINT right_foot_ee
					{
						OFFSET	22.5	-16.5	-42.2
						CHANNELS 3  Xrotation Yrotation Zrotation
						End Site
						{
							OFFSET	1	0	0
						}
					}
				}
			}
		}
	}
}
MOTION
Frames: 5
Frame Time: 0.02
2447.06 624.658 -861.257 -12.3322 49.371 11.0342 3.16561 -0.272317 -0.470198 3.1657 -0.241845 -0.486572 3.16773 -0.163076 -0.518312 3.16744 -0.242886 -0.486053 -11.335 6.8559 -0.377695 -11.4151 13.218 1.50277 -0.0 0.0 -0.0 8.19603 -11.3528 15.888 1.82674 7.30809 61.5372 3.17368 -57.5281 1.74246 53.839 -1.25715 -6.51149 3.22276 1.25774 22.5906 -0.0 0.0 -0.0 11.1985 18.0004 -22.2337 -33.7677 4.43492 -68.7595 0.246107 6.95103 -0.014947 10.0759 -0.244564 1.26222 -0.311821 4.94724 4.20101 0.0 0.0 0.0 -2.61991 -14.1929 12.4929 -4.92618 0.171249 0.736396 41.188 24.3677 -5.25975 -1.00596 0.0 0.0 -0.0 0.0 -0.0 42.3649 9.67321 -13.8758 -1.13561 -0.0450904 -0.168438 -14.4203 -8.83661 -2.16048 -0.46686 0.0 0.0 0.0 0.0 0.0 
2428.83 615.009 -872.971 -12.9572 50.0809 11.6455 3.18242 -0.417435 -0.544749 3.1825 -0.381926 -0.570207 3.1863 -0.288626 -0.622653 3.18596 -0.383338 -0.569258 -11.2027 6.72903 -0.874335 -11.279 13.298 0.973405 -0.0 0.0 -0.0 7.71372 -11.2213 14.8576 0.555313 6.66954 61.5152 3.19866 -57.731 1.76356 53.9511 -1.26596 -6.52281 3.25605 1.38181 22.8805 -0.0 0.0 -0.0 11.5187 18.9126 -22.9063 -33.8094 3.6346 -68.1702 0.246807 6.97061 -0.0150319 10.384 -0.248523 1.30138 -0.362156 4.87818 4.51155 0.0 0.0 0.0 -3.88232 -14.192 12.8122 -5.20471 0.179032 0.778432 41.2499 24.0472 -5.25524 -0.90682 0.0 0.0 -0.0 0.0 -0.0 42.3377 10.166 -13.4086 -2.18807 -0.0838879 -0.325297 -13.7597 -6.53514 -2.06175 0.198384 -0.0 -0.0 0.0 0.0 0.0 
2407.76 617.732 -887.56 -12.4852 51.1297 11.4103 3.17408 -0.45601 -0.452088 3.17409 -0.426319 -0.480189 3.17768 -0.346394 -0.540685 3.17753 -0.427436 -0.479194 -11.1001 6.91902 -0.468572 -11.1773 13.3877 1.40505 -0.0 0.0 -0.0 7.71792 -10.0234 14.9106 -2.43614 5.45659 62.5717 3.13747 -57.2299 1.71197 52.2092 -1.13147 -6.34479 3.17987 1.46495 22.3615 -0.0 0.0 -0.0 11.926 19.4713 -23.8009 -32.639 3.26355 -67.6806 0.323253 9.09775 -0.0257182 10.7669 -0.253148 1.35006 -0.491644 3.96529 4.99395 0.0 0.0 0.0 -4.50111 -14.1361 12.7632 -5.34198 0.182792 0.799162 41.5472 24.186 -5.28714 -0.837103 0.0 0.0 -0.0 0.0 -0.0 41.7606 10.3029 -13.5123 -6.88213 -0.22157 -1.03233 -12.5453 -2.49985 -1.88718 1.55684 -0.0 -0.0 0.0 0.0 0.0 
2388.97 622.927 -889.914 -11.8068 51.1682 10.6047 3.02011 -0.324555 -0.423281 3.02016 -0.296963 -0.443075 3.02246 -0.223072 -0.4845 3.02225 -0.296789 -0.443191 -11.1625 6.67213 -0.875107 -11.2366 13.1896 0.952316 -0.0 0.0 -0.0 7.59842 -8.77032 14.6968 -5.3362 3.93266 62.8623 3.05024 -56.4911 1.63893 51.208 -1.05664 -6.24067 3.13542 1.85783 22.1938 -0.0 0.0 -0.0 12.1087 19.524 -24.2167 -32.0906 3.29628 -67.6244 0.377285 10.5864 -0.0349547 11.0202 -0.256031 1.38229 -0.544772 3.87753 5.31511 0.0 0.0 0.0 -4.98205 -13.4687 12.8219 -5.84179 0.196063 0.874717 42.1438 25.1122 -5.37287 -0.529411 0.0 0.0 -0.0 0.0 -0.0 42.0804 11.0626 -12.5515 -10.3517 -0.285869 -1.56077 -14.6414 0.299681 -2.22156 1.80427 -0.0 -0.0 0.0 0.0 0.0 
2367.31 621.875 -900.764 -12.4593 51.167 10.4554 2.98233 -0.259621 -0.385847 2.98239 -0.234543 -0.401585 2.98403 -0.167714 -0.433766 2.98384 -0.234114 -0.401835 -11.3252 6.50219 -1.15172 -11.399 13.0537 0.657441 -0.0 0.0 -0.0 7.68278 -8.28689 14.8887 -7.25687 2.68469 63.153 2.98623 -55.93 1.58572 50.4736 -1.00293 -6.16347 3.08611 2.12754 21.9432 -0.0 0.0 -0.0 12.2373 19.5822 -24.5085 -31.5896 3.25221 -67.0705 0.416203 11.6499 -0.0424596 11.221 -0.258214 1.40785 -0.598633 3.80729 5.64889 0.0 0.0 0.0 -5.02499 -12.6225 13.2997 -6.20063 0.205185 0.929031 42.479 25.6742 -5.42336 -0.310331 0.0 0.0 -0.0 0.0 -0.0 42.1433 11.701 -12.3498 -13.1619 -0.314425 -1.99098 -16.0746 2.30604 -2.45701 1.93173 -0.0 -0.0 0.0 0.0 0.0 
